<?xml version="1.0" standalone="no"?>
<!DOCTYPE svg PUBLIC "-//W3C//DTD SVG 20010904//EN"
 "http://www.w3.org/TR/2001/REC-SVG-20010904/DTD/svg10.dtd">
<svg version="1.0" xmlns="http://www.w3.org/2000/svg"
 width="260.000000pt" height="260.000000pt" viewBox="0 0 260.000000 260.000000"
 preserveAspectRatio="xMidYMid meet">
<metadata>
Created by potrace 1.11, written by Peter Selinger 2001-2013
</metadata>
<g transform="translate(0.000000,260.000000) scale(0.100000,-0.100000)"
fill="#000000" stroke="none">
<path d="M1145 2583 c-11 -2 -56 -11 -99 -19 -138 -27 -320 -97 -431 -166
-398 -250 -620 -658 -610 -1123 5 -261 71 -470 222 -697 46 -70 198 -231 268
-284 325 -244 724 -332 1103 -244 89 21 268 89 317 121 17 10 39 23 50 28 35
15 178 126 241 187 189 182 338 466 380 724 9 59 12 316 4 362 -5 24 -11 59
-14 78 -41 257 -218 556 -431 729 -202 164 -386 249 -650 297 -37 7 -323 13
-350 7z m355 -111 c493 -87 882 -465 975 -947 18 -92 24 -294 12 -370 -24
-145 -52 -238 -111 -360 -178 -371 -515 -610 -946 -670 -50 -7 -211 -7 -250
-1 -14 3 -48 7 -76 10 -76 9 -218 52 -313 97 -344 161 -580 458 -668 839 -18
80 -24 321 -11 415 16 104 82 302 127 375 105 173 218 304 344 397 78 57 248
146 323 168 103 30 171 46 224 52 30 3 56 7 58 8 8 7 255 -3 312 -13z"/>
<path d="M1188 2285 c-2 -2 -24 -6 -49 -9 -25 -3 -70 -13 -99 -22 -30 -9 -61
-17 -69 -19 -9 -2 -47 -17 -84 -34 -282 -127 -496 -390 -563 -692 -18 -83 -24
-238 -12 -334 65 -525 558 -909 1093 -850 285 31 555 193 713 427 64 96 85
137 121 244 42 125 55 224 48 357 -13 240 -103 454 -264 623 -191 200 -429
303 -710 309 -67 2 -123 2 -125 0z m227 -330 c126 -18 253 -85 354 -186 201
-202 251 -489 131 -747 -35 -74 -104 -167 -155 -208 -21 -16 -47 -37 -59 -47
-40 -35 -181 -96 -256 -111 -213 -43 -445 24 -596 172 -143 141 -211 310 -201
501 3 53 7 103 9 111 3 8 10 35 17 60 43 154 180 313 336 393 52 26 178 64
230 69 45 5 134 1 190 -7z"/>
</g>
</svg>
